<svg width="26" height="22" viewBox="0 0 26 22" fill="none" xmlns="http://www.w3.org/2000/svg">
<g clip-path="url(#clip0_1_262)">
<path d="M0.0129395 2.41305V7.15073C0.0129395 8.59367 1.77116 9.36325 2.84562 8.35318L7.97375 3.61551C9.09706 2.58139 8.36447 0.753662 6.82603 0.753662H1.6979C0.769949 0.753662 0.0129395 1.49918 0.0129395 2.41305Z" fill="white"/>
<path d="M24.2859 0.75354H19.1578C17.6438 0.75354 16.8868 2.58127 18.0101 3.61538L23.1382 8.35306C24.2127 9.33907 25.9709 8.59355 25.9709 7.1506V2.41293C25.9709 1.49906 25.2139 0.75354 24.2859 0.75354Z" fill="white"/>
<path d="M14.1518 12.3214L23.1382 20.6424C24.2127 21.6284 25.9709 20.8829 25.9709 19.4399V14.6542C25.9709 14.1972 25.7756 13.7644 25.4337 13.4517L14.1518 2.99035C13.4925 2.38912 12.4913 2.38912 11.8319 2.99035L0.55005 13.4517C0.208175 13.7644 0.0128174 14.1972 0.0128174 14.6542V19.4399C0.0128174 20.8829 1.77103 21.6525 2.8455 20.6424L11.8319 12.3214C12.4913 11.7202 13.4925 11.7202 14.1518 12.3214Z" fill="white"/>
</g>
<defs>
<clipPath id="clip0_1_262">
<rect width="25.9581" height="20.3455" fill="white" transform="translate(0.0130615 0.753784)"/>
</clipPath>
</defs>
</svg>
